<?xml version="1.0" encoding="utf-8"?>
<!-- Generator: Adobe Illustrator 16.0.0, SVG Export Plug-In . SVG Version: 6.00 Build 0)  -->
<!DOCTYPE svg PUBLIC "-//W3C//DTD SVG 1.1//EN" "http://www.w3.org/Graphics/SVG/1.1/DTD/svg11.dtd">
<svg version="1.1" id="Layer_1" xmlns="http://www.w3.org/2000/svg" xmlns:xlink="http://www.w3.org/1999/xlink" x="0px" y="0px"
	 viewBox="0 0 200 30.647" enable-background="new 0 0 200 30.647" xml:space="preserve"> <!-- width="200px" height="30.647px"-->
<g>
	<path fill="#FF8F00" d="M0.607,16.066c0-6.915,3.887-14.461,11.627-14.461c2.77,0,7.038,1.177,7.038,4.616
		c0,1.85-1.276,2.9-3.281,2.9c-1.304,0,0.446-2.992-3.6-2.992c-4.65,0-6.626,4.745-6.626,8.727c0,6.082,4.143,8.535,6.914,8.535
		c5.192,0,5.638-4.65,5.924-4.65c0.446,0,0.7,2.55,0.7,2.866c0,4.715-3.63,7.454-8.091,7.454C3.984,29.06,0.607,22.497,0.607,16.066
		z"/>
	<path fill="#D94A00" d="M22.151,25.046c0-0.38,0.063-1.307,0.924-1.307c3.662,0,4.616-1.178,4.616-1.593
		c0-1.335-5.54-3.596-5.54-12.453c0-1.435-0.031-1.497,1.209-1.497h2.614c0.412,0,1.115-0.096,1.115,0.573
		c0,0.446-0.288,1.435-0.288,2.389c0,3.727,3.12,7.231,3.758,7.231c1.275,0,2.134-3.823,2.134-6.276
		c0-1.593-0.351-2.931-0.351-3.439c0-0.573,0.796-0.477,1.146-0.477h2.835c0.604,0.096,0.51,1.115,0.51,2.485
		c0.286,9.331-6.914,18.378-13.921,18.378c-0.731,0-0.763-0.478-0.763-1.209V25.046z"/>
	<path fill="#007BA8" d="M44.487,1.413c0.384,0,1.146,0,1.146,0.7c0,0.255-0.954,3.439-0.954,5.32c0,0.511,0.096,1.019,0.7,1.019
		c0.35,0,0.796-0.158,1.308-0.35c0.539-0.157,1.177-0.38,1.846-0.38c2.708,0,6.499,2.419,6.499,9.139
		c0,3.664-0.925,6.592-3.252,9.238c-0.923,1.083-2.609,2.484-5.031,2.484H41.11c-1.115,0-0.985-10.67-0.985-11.401
		c0-1.499-0.129-15.768,1.307-15.768H44.487z M50.732,17.242c0-5.223-2.261-6.499-3.6-6.499c-2.262,0-2.708,1.115-2.708,5.768
		c0,6.878,1.624,6.751,2.454,6.751C49.998,23.263,50.732,19.598,50.732,17.242z"/>
	<path fill="#739E00" d="M57.335,19.25c0-7.708,4.266-11.53,8.535-11.53c3.504,0,6.466,1.973,6.466,5.731
		c0,6.85-10.254,5.415-10.254,8.729c0,1.494,2.417,2.579,4.009,2.579c5.226,0,5.226-3.981,5.672-3.981
		c0.478,0,0.573,1.657,0.573,1.911c0,4.046-3.123,6.37-6.945,6.37C59.69,29.06,57.335,24.344,57.335,19.25z M61.635,16.097
		c0,0.35,0.158,0.7,0.571,0.7c0.383,0,6.18-1.276,6.18-2.899c0-1.562-1.465-2.419-2.673-2.419
		C63.129,11.478,61.635,14.25,61.635,16.097z"/>
	<path fill="#F0A300" d="M77.601,28.582c-1.178,0-1.753,0.985-1.753-9.554c0-8.824-0.254-10.8,0.638-10.832h2.643
		c0.479,0,1.05-0.161,1.082,0.446c0.067,0.477,0.13,1.084,0.768,1.084c0.477,0,1.017-0.511,1.686-1.022
		c0.67-0.477,1.434-0.985,2.293-0.985c1.626,0,2.964,1.4,2.964,3.122c0,2.228-1.815,3.566-2.772,3.566
		c-0.382,0,0.065-2.134-2.132-2.134c-2.676,0-2.868,4.299-2.868,6.21c0,6.34,1.083,9.014,1.083,9.59
		c-0.031,0.508-0.731,0.508-1.083,0.508H77.601z"/>
	<path fill="#FF8F00" d="M104.558,5.904c-1.593,0-3.631,0.796-3.631,2.643c0,2.295,3.154,3.184,4.907,3.789
		c6.688,2.23,8.059,5.446,8.059,8.476c0,3.693-2.645,8.248-9.365,8.248c-4.524,0-9.109-2.42-9.109-7.485
		c0-2.708,1.624-4.301,1.943-4.301c0.542,0,0,6.466,6.849,6.466c2.42,0,4.523-1.05,4.523-3.026c0-2.323-2.869-3.278-4.715-3.854
		c-6.977-2.163-7.739-5.317-7.739-8.024c0-2.676,1.816-7.23,8.279-7.23c4.62,0,7.899,2.453,7.899,3.376
		c0,0.892-1.655,3.789-2.547,3.789C109.111,8.77,107.871,5.904,104.558,5.904z"/>
	<path fill="#D94A00" d="M127.121,28.582c-0.351,0-1.021,0.062-1.021-0.445c0-0.352,0.605-2.9,0.605-5.128
		c0-0.573,0.095-1.149-0.224-1.149c-0.223,0-0.638,0.607-1.146,1.18c-0.51,0.604-1.115,1.37-1.688,1.37c-2.452,0-7.328-5-7.328-9.97
		c0-3.375,1.784-6.719,8.921-6.719c5.413,0,5.925-0.478,5.925,6.307v9.363c0,5.479-0.446,5.192-1.435,5.192H127.121z
		 M126.866,17.943c0-6.339-1.211-6.465-2.899-6.465c-2.007,0-3.694,1.434-3.694,3.503c0,2.643,2.294,5.351,5.129,5.351
		C126.834,20.332,126.866,19.059,126.866,17.943z"/>
	<path fill="#007BA8" d="M148.471,8.197c1.338,0,1.369,6.688,1.369,9.715c0,11.688-0.828,11.147-3.12,11.147
		c-3.343,0-0.797-1.784-2.611-1.784c-0.286,0-1.02,0.668-1.593,1.053c-0.576,0.35-1.308,0.731-2.357,0.731
		c-2.643,0-5.097-1.655-5.097-10.767c0-0.541,0.224-10.096,1.562-10.096h2.931c0.415,0,1.272-0.161,1.272,0.477
		c0,0.478-1.464,3.662-1.464,9.685c0,1.784-0.032,6.623,2.707,6.623c1.051,0,3.47-0.315,3.47-7.165c0-3.823-1.114-8.728-1.114-9.235
		c0-0.415,0.734-0.384,1.083-0.384H148.471z"/>
	<path fill="#739E00" d="M160.839,15.331c0.926-0.158,1.657-0.318,1.657-1.369c0-1.626-1.688-2.484-3.092-2.484
		c-3.248,0-2.771,2.738-3.47,2.738c-1.02,0-2.134-1.242-2.134-2.612c0-2.355,2.642-3.884,5.572-3.884
		c1.02,0,5.384-0.032,7.008,4.426c0.67,1.847,0.731,11.273,0.731,12.39c0,1.4,0.257,2.23,0.257,3.314
		c0,0.67-2.996,0.731-5.828,0.731c-7.676,0-8.219-3.95-8.219-5.861C153.322,18.709,157.272,15.936,160.839,15.331z M162.812,20.905
		c0-1.115,0.192-2.454-1.335-2.454c-1.88,0-3.856,1.592-3.856,3.538c0,1.784,1.562,2.835,3.253,2.835
		c1.877,0,1.938-0.958,1.938-2.518V20.905z"/>
	<path fill="#F0A300" d="M173.046,28.582c-1.177,0-1.75,0.985-1.75-9.554c0-8.824-0.255-10.8,0.638-10.832h2.643
		c0.478,0,1.053-0.161,1.083,0.446c0.063,0.477,0.128,1.084,0.764,1.084c0.478,0,1.021-0.511,1.69-1.022
		c0.669-0.477,1.433-0.985,2.293-0.985c1.623,0,2.962,1.4,2.962,3.122c0,2.228-1.815,3.566-2.771,3.566
		c-0.383,0,0.063-2.134-2.137-2.134c-2.674,0-2.866,4.299-2.866,6.21c0,6.34,1.082,9.014,1.082,9.59
		c-0.031,0.508-0.731,0.508-1.082,0.508H173.046z"/>
	<path fill="#681A6F" d="M184.811,19.25c0-7.708,4.266-11.53,8.535-11.53c3.504,0,6.465,1.973,6.465,5.731
		c0,6.85-10.254,5.415-10.254,8.729c0,1.494,2.417,2.579,4.009,2.579c5.228,0,5.228-3.981,5.673-3.981
		c0.478,0,0.572,1.657,0.572,1.911c0,4.046-3.123,6.37-6.945,6.37C187.165,29.06,184.811,24.344,184.811,19.25z M189.11,16.097
		c0,0.35,0.157,0.7,0.569,0.7c0.385,0,6.182-1.276,6.182-2.899c0-1.562-1.466-2.419-2.674-2.419
		C190.604,11.478,189.11,14.25,189.11,16.097z"/>
</g>
</svg>
